<svg viewBox="0 0 20 19.6924" xmlns="http://www.w3.org/2000/svg" xmlns:xlink="http://www.w3.org/1999/xlink" width="20.000000" height="19.692383" fill="none" customFrame="#000000">
	<path id="SEARCH" d="M19.8623 18.5222L14.8235 13.5609C14.7337 13.4724 14.6165 13.4263 14.4915 13.4263L14.0892 13.4263C15.4289 11.9994 16.2492 10.0957 16.2492 7.99961C16.2492 3.58059 12.6127 0 8.1246 0C3.63654 0 0 3.58059 0 7.99961C0 12.4186 3.63654 15.9992 8.1246 15.9992C10.2534 15.9992 12.1869 15.1916 13.6361 13.8762L13.6361 14.2685C13.6361 14.3916 13.6868 14.507 13.7728 14.5954L18.8116 19.5567C18.9952 19.7375 19.292 19.7375 19.4756 19.5567L19.8623 19.176C20.0459 18.9952 20.0459 18.7029 19.8623 18.5222ZM8.1246 14.7685C4.32401 14.7685 1.24994 11.7417 1.24994 7.99961C1.24994 4.25748 4.32401 1.23071 8.1246 1.23071C11.9252 1.23071 14.9993 4.25748 14.9993 7.99961C14.9993 11.7417 11.9252 14.7685 8.1246 14.7685Z" fill="rgb(255,255,255)" fill-rule="nonzero" />
</svg>
