<svg viewBox="0 0 17 19.6923" xmlns="http://www.w3.org/2000/svg" xmlns:xlink="http://www.w3.org/1999/xlink" width="17.000000" height="19.692261" fill="none" customFrame="#000000">
	<path id="SHOP" d="M13.3571 4.92308C13.3571 2.2085 11.1782 0 8.5 0C5.82174 0 3.64286 2.2085 3.64286 4.92308L0 4.92308L0 16.6154C0 18.3147 1.35913 19.6923 3.03571 19.6923L13.9643 19.6923C15.6409 19.6923 17 18.3147 17 16.6154L17 4.92308L13.3571 4.92308ZM8.5 1.23077C10.5087 1.23077 12.1429 2.88712 12.1429 4.92308L4.85714 4.92308C4.85714 2.88712 6.49131 1.23077 8.5 1.23077ZM15.7857 16.6154C15.7857 17.6333 14.9686 18.4615 13.9643 18.4615L3.03571 18.4615C2.03139 18.4615 1.21429 17.6333 1.21429 16.6154L1.21429 6.15385L3.64286 6.15385L3.64286 8C3.64286 8.33988 3.91471 8.61539 4.25 8.61539C4.58529 8.61539 4.85714 8.33988 4.85714 8L4.85714 6.15385L12.1429 6.15385L12.1429 8C12.1429 8.33988 12.4147 8.61539 12.75 8.61539C13.0853 8.61539 13.3571 8.33988 13.3571 8L13.3571 6.15385L15.7857 6.15385L15.7857 16.6154Z" fill="rgb(255,255,255)" fill-rule="nonzero" />
</svg>
